<?xml version="1.0" encoding="utf-8"?>
<!-- Generator: Adobe Illustrator 22.1.0, SVG Export Plug-In . SVG Version: 6.00 Build 0)  -->
<svg version="1.1" id="Layer_1" xmlns="http://www.w3.org/2000/svg" xmlns:xlink="http://www.w3.org/1999/xlink" x="0px" y="0px"
	 viewBox="0 0 673.5 637.1" style="enable-background:new 0 0 673.5 637.1;" xml:space="preserve">
<style type="text/css">
	.st0{fill:#FFFFFF;}
</style>
<path class="st0" d="M482.1,490c5,9.4,1.4,22.4-10.8,39.6L471,530c-6.1,6.9-12.3,8-16.4,7.7c-4.4-0.3-8.3-2.3-11.5-4.7l-0.8,30.5
	c-0.8,16.4-5.1,26.5-13.9,33c-8.4,6.2-20.7,9.1-42.4,10l-109,5.5h-0.1c-27,0-43.6-14.1-46.6-39.8l0-0.5l-1.2-64
	c0-20.5,22.4-28.2,37.3-33.2l0.4-0.1c0,0,5.4,6.2,14.9-0.6c-1.2,0.2-2.3,0.3-3.5,0.4c-27.5,2-41.3-26.2-42.7-34.4
	c-1-5.5-0.1-9.5,0.3-10.7c-2.5-1.9-4-4.7-4.4-8.3c-0.4-3.5-0.5-6.6-0.4-8.8c0-0.5,0.1-1.2,0.6-2.3c-2.8,0.1-5.5,0.2-7.5,0.2
	c-3.8,0-6.1-1.8-7.3-3.3c-3-3.6-2.2-8.5-2-9.7c1.9-10.5,4.5-25.3,6.3-35.9l-3.2-2c-1.1-0.7-10.9-7.8-9.2-31.5
	c0.1-0.8,0.2-1.6,0.4-2.5c0.2-1.1,0.5-2.3,0.5-3.5c0-0.6-0.1-1.3-0.3-2.4c-0.3-1.9-0.7-4.5-0.8-9.1l-1.5-0.1
	c-1.6-0.2-4.5-0.4-14.9-13.8c-3-3.8-10.1-13.4-11.9-19.2c-0.1-0.4-0.2-0.8-0.3-1.2c0,0-3.8-3.7-3.8-9.7s1.3-20.4,16-30.8
	c8.1-5.7,16.2-7,23.3-8.1c5.4-0.8,10.5-1.6,15.3-4.2c1.5-0.8,4.4-3.2,7.7-6c13.2-10.9,37.2-30.8,70.9-37.7l-10.7-22.5l4.3-2.2
	c8.3-4.3,12.6-9,12.8-14.2c0.4-10.3-14.9-22-20.8-25.6l-7.3-4.5l1.6-0.9v0l-85.2-58.5l7.1-3.9C270.3,14,318.8,19.3,349,29.6
	c32.8,11.2,51.3,30.2,52.1,31l4.3,4.4l-5.2,3.3c-2.5,1.6-4.7,4.1-5.1,5.2c2.6,0.8,10.6-0.1,17.4-2.1l3.7-1.1l2,3.4
	c15.9,27,52.9,90.6,54.2,96.6c1.4,6.3,1,11.5-1,16c-0.5,1-1.3,2-3,3.2c21.7,12.2,30.1,37.4,30.5,57.2c0,0.2,0,0.5,0,0.7
	c0,24.3-27.5,81.4-28.7,83.9l-5.4,11.1l-1.2,81l-4.8-2.8l-4.6,3.5c-0.8,0.6-6.6,4.8-13.3,6.3v17.2c4.6,0.5,11.4,1.9,16.3,5.9
	c6.2,5,7,17.8,6.9,25.7C469.6,479.8,478.1,482.4,482.1,490z"/>
<path d="M305.1,159c39-20.1-7.7-48.5-7.7-48.5L327,93.8C390.7,136,420.7,185,428.7,211c-30.8-32.3-77.5-45.2-116-36L305.1,159z
	 M493.9,246.8c-0.5-20.7-10.2-48.4-37.2-56.9c5.4-2.4,9.7-4.6,10.2-5.7c1.6-3.4,1.8-7.6,0.7-12.8c-1.3-5.9-53.7-95.1-53.7-95.1
	s-20.1,5.8-23.2,0c-3.2-5.8,6.9-12.1,6.9-12.1s-72.3-74.9-184.2-12.7l78.6,53.9L326.7,86c138,80,133,222,133,222c5,13,6,21,6,21
	S494.4,269.8,493.9,246.8z M438.3,520.8c0,0,14.4,22.2,28.9,5.8c31.4-44-8.4-43-8.4-43s1.7-21.2-4.8-26.4
	c-6.5-5.2-18.1-5.1-18.1-5.1v-26.4c7.2,0.2,15.3-5.9,15.3-5.9c-16.3-12.5-33.2-27.5-42.2-66.6c-2.1-9-21.5-6.6-21.5-6.6
	s12.7,25.4-9.7,41.4c0,0-6.2,49.5,40.1,123.8c1.4,9.6,2.7,59.5-23.5,60.5L274,579.8c-7.3,0.7-11.8-0.7-12.6-13.9
	c-0.5-8.1-3.5-61.9-3.5-61.9c-0.3-12.1,4.5-22.3,10.3-24.9c-14.1,4.8-34.3,11.5-34.3,28.5l1.2,64c3.1,26.2,21,35.4,41.6,35.4
	l108.9-5.5c38.5-1.7,50.2-9.7,51.5-38.3L438.3,520.8z M451.4,311c-6.8-15.9,14.4-86.2-69.4-119.5s-136.7,29-149,35.8
	c-12.3,6.8-25.1,2.8-38.1,12c-13.1,9.2-15.4,28.1-15.4,28.1c10.3-14.8,106,60.5,145.5,60.5c15.1,0,25.3-11.2,25.3-11.2
	c-15.4,27.6-44.2,14.3-44.2,14.3s0.7,6.5,4.7,11.4c3.6,4.4,10.8,5.1,14.1,5.3s5,0,4.7,13.8c0,0,7.1-3.1,4.7,11.7
	c0,0,6.9,0.8,6.7,13.8c0,0,0,4.1,2.1,4.4c5-25.3,17.6-54.4,55.6-52.4c18.1,1,17,9,17,9c8,46,43.1,66.5,43.1,66.5l1.1-73.4
	C459.9,341.1,458.2,326.8,451.4,311z M207.3,304.9c0,0-1.3-6.4,2.6-10.5c3.9-4.1,9.5-4.1,9.5-4.1s-30.5-20.6-34.4-17.5
	C181.2,275.9,204,304.6,207.3,304.9z M348.8,391.7c23.2,5.6,41.2-23.4,35.9-34.1c-6.2-12.4-14-4.8-14-4.8c10,11.2-5,23.2-13.7,17.5
	C352.5,372.9,348.8,391.7,348.8,391.7z M368.9,394.6c0,0-7.6,3.2-22.5,3.2s-12.5-16.6-12.5-16.6c-8.3,0-6.7-12.3-6.7-12.3
	c-6.6,0-4.9-14.8-4.9-14.8c-5.3,0.1-12.7-2.3-16.4-6c-8.7-8.8-3.4-15.4-11.3-20c-14.8-4.4-59.2-29.7-64.8-31.1s-16.5,0.9-16.6,10.6
	c0,8.9,1.1,11.2,1.1,14s-0.8,5-0.9,6.4c-1.5,21.4,6.9,26.9,6.9,26.9c1.1-10.4,7.7-11.3,7.4-6.4s-8.4,49.5-8.4,49.5s-1.4,7,4.4,7
	c5.8,0,18.9-0.8,18.9-0.8s-6.9,6.2-7,8.2c-0.1,2,0.1,4.9,0.4,8.1c0.3,3.2,2.1,6.2,7.3,6.4c20.9,0.5,19.5,2.8,19.5,2.8
	c0-2.2-22.5,1-22.5,1s-1.1,3.3-0.2,8.5c1,5.5,12.9,32,37.4,30.3c16.1-1.1,37.5-11.9,60.2-28.1c-23.8,33.6-68.6,26.3-67.3,65.2
	c0.3,9.8,2.1,45,2.7,58.3c0.1,3,2.5,5.3,5.5,5.4c6.5,0.1,13.1-0.1,16.8-0.5c11.1-1.4,15.5-7.8,37.1-9.4c22.3-1.6,22.2,4,38.4,2.6
	l15.3-1.7c18.3-2.1,22.8-47.2,22.8-47.2C384.3,480,371,433.8,368.9,394.6z M259.8,364.8c0,0-11.5-4.6-11.5-12.5c0,0,2.7-3.4,10.9-3
	c8.2,0.4,13.4,6.1,13.4,6.1L259.8,364.8z M369.1,364.5c-1.8,2.8-5.1,4-7.3,2.6c-2.2-1.4-2.5-4.8-0.7-7.7c1.8-2.8,5.1-4,7.3-2.6
	C370.6,358.2,370.9,361.6,369.1,364.5z"/>
</svg>
